<svg width="147" height="20" viewBox="0 0 147 20" fill="none" xmlns="http://www.w3.org/2000/svg">
<path d="M37.1094 9.43953V18.2171H34.9882V1.1496H38.7918L41.7908 11.0487C41.7908 11.0731 41.8639 11.3169 41.9859 11.7558C42.1322 12.1947 42.2297 12.4629 42.2541 12.5848C42.2784 12.7067 42.3516 12.9506 42.4735 13.3407C42.5954 13.7064 42.6686 13.999 42.6929 14.2184C42.7905 14.6085 42.9368 15.3156 42.9611 15.8276H43.7414C43.8633 14.9011 43.9852 14.2916 44.2534 13.3407C44.3509 12.9749 44.4241 12.7311 44.4485 12.6092C44.4972 12.4629 44.5947 12.1947 44.7167 11.7802C44.8386 11.3657 44.9117 11.1219 44.9361 11.0487L47.9351 1.1496H51.7387V18.2171H49.6175V9.43953C49.6175 8.07413 49.6906 6.17232 49.8125 3.73411H48.9835C48.5934 5.61153 48.057 7.68401 47.3499 9.95155L44.8142 18.2171H41.9127L39.4014 9.95155C38.548 7.07446 38.0116 5.00198 37.7434 3.73411H36.9144C37.0363 6.17232 37.1094 8.07413 37.1094 9.43953Z" fill="black"/>
<path d="M66.0931 12.6336H56.5353C56.3646 15.5838 57.4375 16.7542 60.3877 16.7542C62.7284 16.7542 63.7524 16.1446 63.9475 14.2916H65.9468C65.8249 16.9248 63.6549 18.5584 60.4365 18.5584C56.6572 18.5584 54.3653 16.3884 54.3653 11.9996C54.3653 7.87907 56.5841 5.31895 60.4608 5.31895C63.5574 5.31895 66.1663 7.22075 66.1663 11.4389C66.1663 11.8534 66.1419 12.2435 66.0931 12.6336ZM60.3389 7.19637C58.9004 7.19637 57.9007 7.48896 57.3399 8.04974C56.7791 8.61053 56.5353 9.56144 56.5597 10.9512H63.9475C64.045 9.51267 63.8256 8.53739 63.2892 8.00098C62.7528 7.46457 61.7775 7.19637 60.3389 7.19637Z" fill="black"/>
<path d="M73.8095 16.4616V18.2171H72.6391C70.4204 18.2171 69.2256 17.1199 69.2256 14.9986V7.31828H67.2751V5.6603H69.2256V2.36871H71.2737V5.6603H73.8339V7.31828H71.2737V15.2912C71.2737 16.1934 71.5419 16.4616 72.4928 16.4616H73.8095Z" fill="black"/>
<path d="M79.7686 18.5097C77.111 18.5097 75.3555 17.0467 75.3555 14.5354C75.3555 12.3166 76.8184 11.1219 79.4516 10.9512L83.9867 10.683V9.46391C83.9867 8.513 83.7673 7.90345 83.3284 7.58648C82.8895 7.26952 82.0849 7.09884 80.939 7.09884C78.6227 7.09884 77.8424 7.68401 77.7449 9.36638H75.7456C75.7212 6.92817 77.7449 5.31895 81.0609 5.31895C83.5478 5.31895 85.9373 6.1967 85.9373 9.43953V18.2171H83.9623L83.9136 17.1199H83.2309C82.6457 18.022 81.3291 18.5097 79.7686 18.5097ZM80.5976 16.8517C83.3772 16.8517 83.9867 16.0471 83.9867 13.6576V12.1947L79.8174 12.4873C78.8665 12.5604 78.2569 12.7311 77.9643 13.0237C77.6718 13.2919 77.5255 13.8527 77.5255 14.7061C77.5255 16.4372 78.3545 16.8517 80.5976 16.8517Z" fill="black"/>
<path d="M91.2802 11.1219V18.2171H89.1346V1.1496H96.5224C98.1072 1.1496 99.3995 1.58848 100.399 2.46624C101.399 3.344 101.911 4.5631 101.911 6.12356C101.911 7.70839 101.399 8.9275 100.399 9.80526C99.3995 10.683 98.1072 11.1219 96.5224 11.1219H91.2802ZM96.4248 3.02703H91.2802V9.24447H96.4248C98.8143 9.24447 99.4482 8.82997 99.4482 6.12356C99.4482 3.44152 98.8143 3.02703 96.4248 3.02703Z" fill="black"/>
<path d="M105.888 10.4148V18.2171H103.84V5.6603H105.815L105.864 6.75749H106.546C107.302 5.83097 108.424 5.34333 109.887 5.31895V7.34266H109.253C107.887 7.34266 106.985 7.53772 106.546 7.95222C106.107 8.36671 105.888 9.17132 105.888 10.4148Z" fill="black"/>
<path d="M122.329 12.6336H112.771C112.601 15.5838 113.673 16.7542 116.624 16.7542C118.964 16.7542 119.988 16.1446 120.184 14.2916H122.183C122.061 16.9248 119.891 18.5584 116.672 18.5584C112.893 18.5584 110.601 16.3884 110.601 11.9996C110.601 7.87907 112.82 5.31895 116.697 5.31895C119.793 5.31895 122.402 7.22075 122.402 11.4389C122.402 11.8534 122.378 12.2435 122.329 12.6336ZM116.575 7.19637C115.136 7.19637 114.137 7.48896 113.576 8.04974C113.015 8.61053 112.771 9.56144 112.796 10.9512H120.184C120.281 9.51267 120.062 8.53739 119.525 8.00098C118.989 7.46457 118.013 7.19637 116.575 7.19637Z" fill="black"/>
<path d="M129.288 18.5584C126.362 18.5584 123.924 17.1443 124.021 14.3647H126.021C126.143 15.9983 126.655 16.8029 129.41 16.8029C131.921 16.8029 132.433 16.169 132.433 14.6817C132.433 13.7308 131.921 13.2675 130.483 12.9993L127.825 12.5117C125.46 12.0484 124.29 10.9512 124.29 9.17132C124.29 6.90379 126.289 5.31895 129.239 5.31895C130.678 5.31895 131.872 5.68468 132.823 6.41614C133.799 7.14761 134.286 8.14727 134.262 9.39076H132.263C132.165 7.73278 131.434 7.07446 129.166 7.07446C126.801 7.07446 126.289 7.7084 126.289 8.97627C126.289 9.97593 126.703 10.4636 128.386 10.7562L130.8 11.1707C133.262 11.6095 134.481 12.7555 134.481 14.5842C134.481 15.7789 133.994 16.7298 133.043 17.4612C132.092 18.1927 130.824 18.5584 129.288 18.5584Z" fill="black"/>
<path d="M141.307 18.5584C138.381 18.5584 135.943 17.1443 136.04 14.3647H138.039C138.161 15.9983 138.673 16.8029 141.429 16.8029C143.94 16.8029 144.452 16.169 144.452 14.6817C144.452 13.7308 143.94 13.2675 142.501 12.9993L139.844 12.5117C137.479 12.0484 136.308 10.9512 136.308 9.17132C136.308 6.90379 138.308 5.31895 141.258 5.31895C142.696 5.31895 143.891 5.68468 144.842 6.41614C145.817 7.14761 146.305 8.14727 146.281 9.39076H144.281C144.184 7.73278 143.452 7.07446 141.185 7.07446C138.82 7.07446 138.308 7.7084 138.308 8.97627C138.308 9.97593 138.722 10.4636 140.404 10.7562L142.818 11.1707C145.281 11.6095 146.5 12.7555 146.5 14.5842C146.5 15.7789 146.012 16.7298 145.061 17.4612C144.111 18.1927 142.843 18.5584 141.307 18.5584Z" fill="black"/>
<mask id="mask0_205_508" style="mask-type:alpha" maskUnits="userSpaceOnUse" x="0" y="0" width="31" height="20">
<path fill-rule="evenodd" clip-rule="evenodd" d="M30.1024 9.83467C30.1024 4.40313 25.6992 -2.40339e-07 20.2677 0C14.8362 2.34477e-07 10.433 4.40313 10.433 9.83467C10.433 15.2662 14.8362 19.6693 20.2677 19.6693C25.6992 19.6693 30.1024 15.2662 30.1024 9.83467ZM21.7229 8.37938C22.5313 9.18775 23.7588 9.3596 26.2138 9.70331L27.152 9.83464L26.2138 9.96598C23.7588 10.3097 22.5313 10.4815 21.723 11.2899C20.9146 12.0983 20.7427 13.3258 20.399 15.7808L20.2677 16.7189L20.1363 15.7808C19.7926 13.3258 19.6208 12.0983 18.8124 11.2899C18.0041 10.4815 16.7765 10.3097 14.3215 9.96598L13.3834 9.83464L14.3215 9.70331C16.7766 9.3596 18.0041 9.18775 18.8124 8.37938C19.6208 7.57101 19.7927 6.34351 20.1364 3.88849L20.2677 2.9504L20.399 3.88848C20.7427 6.3435 20.9146 7.57101 21.7229 8.37938Z" fill="white"/>
<path d="M3.15536 19.6692C1.45064 16.9843 0.5 13.4796 0.5 9.8346C0.5 6.1896 1.45064 2.68493 3.15536 4.29887e-07V19.6692Z" fill="white"/>
<path d="M6.42926 17.2584C7.43444 18.3314 8.63481 19.1482 9.94129 19.6693V4.29887e-07C8.63481 0.52112 7.43444 1.3379 6.42926 2.41096C4.5849 4.37984 3.54875 7.05023 3.54875 9.83465C3.54875 12.6191 4.5849 15.2895 6.42926 17.2584Z" fill="white"/>
</mask>
<g mask="url(#mask0_205_508)">
<g clip-path="url(#clip0_205_508)">
<path d="M30.1024 7.62939e-06H0.500076V19.6693H30.1024V7.62939e-06Z" fill="white"/>
<path d="M30.1024 7.62939e-06H0.500076V19.6693H30.1024V7.62939e-06Z" fill="#FF6C02" fill-opacity="0.19"/>
<g filter="url(#filter0_f_205_508)">
<path d="M33.8027 2.9504H3.31223V16.8173H33.8027V2.9504Z" fill="url(#paint0_linear_205_508)"/>
<path d="M52.0081 0H15.5972V21.9313H52.0081V0Z" fill="#FF37BB"/>
</g>
</g>
</g>
<defs>
<filter id="filter0_f_205_508" x="-4.55551" y="-7.86774" width="64.4314" height="37.6668" filterUnits="userSpaceOnUse" color-interpolation-filters="sRGB">
<feFlood flood-opacity="0" result="BackgroundImageFix"/>
<feBlend mode="normal" in="SourceGraphic" in2="BackgroundImageFix" result="shape"/>
<feGaussianBlur stdDeviation="3.93387" result="effect1_foregroundBlur_205_508"/>
</filter>
<linearGradient id="paint0_linear_205_508" x1="27.4759" y1="3.81708" x2="20.8506" y2="20.6382" gradientUnits="userSpaceOnUse">
<stop stop-color="#0E6FFF"/>
<stop offset="1" stop-color="#00F0FF"/>
</linearGradient>
<clipPath id="clip0_205_508">
<rect width="29.6024" height="19.6693" fill="white" transform="translate(0.5)"/>
</clipPath>
</defs>
</svg>
