<svg width="180" height="22" viewBox="0 0 180 22" fill="none" xmlns="http://www.w3.org/2000/svg">
                            <path d="M0 5.14415C0 2.88794 1.82902 1.05892 4.08523 1.05892C6.34145 1.05892 8.17047 2.88794 8.17047 5.14415C8.17047 7.40036 6.34145 9.22939 4.08523 9.22939C1.82902 9.22939 0 7.40036 0 5.14415Z" fill="#D81F19"></path>
                            <path d="M13.5458 5.14415C13.5458 2.88794 15.3748 1.05892 17.631 1.05892C19.8872 1.05892 21.7162 2.88794 21.7162 5.14415C21.7162 7.40036 19.8872 9.22939 17.631 9.22939C15.3748 9.22939 13.5458 7.40036 13.5458 5.14415Z" fill="#D81F19"></path>
                            <path d="M27.0916 5.14415C27.0916 2.88794 28.9206 1.05892 31.1768 1.05892C33.433 1.05892 35.262 2.88794 35.262 5.14415C35.262 7.40036 33.433 9.22939 31.1768 9.22939C28.9206 9.22939 27.0916 7.40036 27.0916 5.14415Z" fill="#D81F19"></path>
                            <path d="M6.77289 16.9698C6.77289 14.7136 8.60191 12.8846 10.8581 12.8846C13.1143 12.8846 14.9434 14.7136 14.9434 16.9698C14.9434 19.226 13.1143 21.0551 10.8581 21.0551C8.60191 21.0551 6.77289 19.226 6.77289 16.9698Z" fill="#D81F19"></path>
                            <path d="M20.3187 16.9698C20.3187 14.7136 22.1477 12.8846 24.4039 12.8846C26.6601 12.8846 28.4891 14.7136 28.4891 16.9698C28.4891 19.226 26.6601 21.0551 24.4039 21.0551C22.1477 21.0551 20.3187 19.226 20.3187 16.9698Z" fill="#D81F19"></path>
                            <path d="M173.253 0.903564H175.327V6.34092H174.387V4.01839H172.833V6.34092H171.909V2.29397L173.253 0.903564ZM172.833 2.56584V3.14065H174.387V1.78131H173.595L172.833 2.56584Z" fill="#D81F19"></path>
                            <path d="M176.24 0.903564H180V1.78131H178.586V5.46317H180V6.34092H176.24V5.46317H177.646V1.78131H176.24V0.903564Z" fill="#D81F19"></path>
                            <path d="M47.5982 20.5382L45 2.26895H47.7243L49.8432 18.633H50.2468L52.9712 2.26895H57.7387L60.4631 18.633H60.8667L62.9604 2.26895H65.6847L63.0865 20.5382H58.3189L55.5441 3.93928H55.1405L52.391 20.5382H47.5982Z" fill="black"></path>
                            <path d="M72.0848 20.5382V4.82664H66.6614V2.26895H80.2325V4.82664H74.8091V20.5382H72.0848Z" fill="black"></path>
                            <path d="M86.41 20.5382V4.82664H80.9865V2.26895H94.5577V4.82664H89.1343V20.5382H86.41Z" fill="black"></path>
                            <path d="M102.132 20.9036C100.803 20.9036 99.6263 20.66 98.6004 20.1728C97.5746 19.6856 96.7674 18.9722 96.1788 18.0327C95.6071 17.0757 95.3212 15.9187 95.3212 14.5615V13.9091H98.0203V14.5615C98.0203 15.8491 98.3902 16.8147 99.1302 17.4585C99.8869 18.1023 100.888 18.4242 102.132 18.4242C103.393 18.4242 104.343 18.1545 104.982 17.6151C105.621 17.0583 105.941 16.345 105.941 15.475C105.941 14.9008 105.79 14.431 105.487 14.0657C105.184 13.7003 104.755 13.4132 104.2 13.2044C103.645 12.9782 102.981 12.7694 102.208 12.578L101.274 12.3431C100.148 12.0647 99.1638 11.7255 98.323 11.3253C97.4989 10.9077 96.8599 10.3596 96.4058 9.68104C95.9518 9.00247 95.7248 8.1325 95.7248 7.07115C95.7248 5.99239 95.977 5.07023 96.4815 4.30466C97.0028 3.5391 97.7176 2.94752 98.6257 2.52994C99.5338 2.11236 100.602 1.90356 101.829 1.90356C103.057 1.90356 104.15 2.12106 105.109 2.55604C106.084 2.99102 106.849 3.63479 107.404 4.48736C107.959 5.33992 108.236 6.40998 108.236 7.69752V8.63708H105.537V7.69752C105.537 6.91455 105.378 6.27948 105.058 5.7923C104.755 5.30512 104.327 4.94844 103.772 4.72225C103.217 4.49606 102.569 4.38296 101.829 4.38296C100.753 4.38296 99.9122 4.61785 99.3068 5.08763C98.7182 5.54001 98.4239 6.17508 98.4239 6.99285C98.4239 7.54963 98.55 8.01071 98.8022 8.37609C99.0713 8.72408 99.4581 9.01117 99.9626 9.23736C100.467 9.46355 101.098 9.66364 101.854 9.83763L102.788 10.0725C103.931 10.3335 104.94 10.6728 105.815 11.0904C106.689 11.4906 107.379 12.0386 107.883 12.7346C108.388 13.4306 108.64 14.3266 108.64 15.4228C108.64 16.5189 108.371 17.4759 107.833 18.2937C107.312 19.1114 106.563 19.7552 105.588 20.225C104.612 20.6774 103.461 20.9036 102.132 20.9036Z" fill="black"></path>
                            <path d="M115.738 20.5382C114.981 20.5382 114.376 20.3033 113.922 19.8335C113.484 19.3637 113.266 18.7374 113.266 17.9544V9.94203H109.835V7.67142H113.266V3.4173H115.864V7.67142H119.572V9.94203H115.864V17.4846C115.864 18.0066 116.099 18.2676 116.57 18.2676H119.168V20.5382H115.738Z" fill="black"></path>
                            <path d="M126.888 20.7731C125.946 20.7731 125.105 20.5556 124.365 20.1206C123.625 19.6856 123.045 19.0679 122.625 18.2676C122.204 17.4672 121.994 16.5102 121.994 15.3967V7.67142H124.592V15.214C124.592 16.3276 124.861 17.154 125.399 17.6934C125.937 18.2154 126.686 18.4764 127.644 18.4764C128.704 18.4764 129.553 18.111 130.192 17.3802C130.848 16.632 131.176 15.562 131.176 14.17V7.67142H133.774V20.5382H131.226V18.6069H130.823C130.587 19.1288 130.167 19.6247 129.561 20.0945C128.956 20.5469 128.065 20.7731 126.888 20.7731Z" fill="black"></path>
                            <path d="M142.256 20.9036C141.23 20.9036 140.28 20.6426 139.406 20.1206C138.531 19.5986 137.825 18.8505 137.287 17.8761C136.766 16.8843 136.505 15.6925 136.505 14.3005V13.9091C136.505 12.5345 136.766 11.3514 137.287 10.3596C137.808 9.36785 138.506 8.61098 139.381 8.089C140.255 7.56703 141.214 7.30604 142.256 7.30604C143.063 7.30604 143.736 7.41043 144.274 7.61922C144.829 7.82802 145.283 8.0977 145.636 8.42829C145.99 8.74148 146.259 9.07206 146.444 9.42005H146.847V2.26895H149.445V20.5382H146.898V18.7113H146.494C146.175 19.268 145.687 19.7726 145.031 20.225C144.392 20.6774 143.467 20.9036 142.256 20.9036ZM142.988 18.5547C144.115 18.5547 145.039 18.1806 145.763 17.4324C146.502 16.6842 146.872 15.6142 146.872 14.2222V13.9874C146.872 12.6128 146.511 11.5515 145.788 10.8033C145.065 10.0551 144.131 9.68104 142.988 9.68104C141.878 9.68104 140.953 10.0551 140.213 10.8033C139.49 11.5515 139.128 12.6128 139.128 13.9874V14.2222C139.128 15.6142 139.49 16.6842 140.213 17.4324C140.953 18.1806 141.878 18.5547 142.988 18.5547Z" fill="black"></path>
                            <path d="M152.766 20.5382V7.67142H155.364V20.5382H152.766ZM154.077 5.9228C153.573 5.9228 153.144 5.7575 152.791 5.42692C152.455 5.07893 152.286 4.63525 152.286 4.09587C152.286 3.5565 152.455 3.12151 152.791 2.79093C153.144 2.44294 153.573 2.26895 154.077 2.26895C154.599 2.26895 155.028 2.44294 155.364 2.79093C155.7 3.12151 155.868 3.5565 155.868 4.09587C155.868 4.63525 155.7 5.07893 155.364 5.42692C155.028 5.7575 154.599 5.9228 154.077 5.9228Z" fill="black"></path>
                            <path d="M164.542 20.9036C163.298 20.9036 162.188 20.6426 161.213 20.1206C160.254 19.5812 159.497 18.8157 158.942 17.8239C158.387 16.8321 158.11 15.6577 158.11 14.3005V13.9091C158.11 12.5519 158.387 11.3862 158.942 10.4118C159.497 9.42005 160.254 8.65448 161.213 8.1151C162.188 7.57573 163.298 7.30604 164.542 7.30604C165.787 7.30604 166.897 7.57573 167.872 8.1151C168.847 8.65448 169.613 9.42005 170.168 10.4118C170.723 11.3862 171 12.5519 171 13.9091V14.3005C171 15.6577 170.723 16.8321 170.168 17.8239C169.613 18.8157 168.847 19.5812 167.872 20.1206C166.897 20.6426 165.787 20.9036 164.542 20.9036ZM164.542 18.5025C165.686 18.5025 166.611 18.1284 167.317 17.3802C168.04 16.6146 168.402 15.562 168.402 14.2222V13.9874C168.402 12.6476 168.049 11.6037 167.342 10.8555C166.636 10.0899 165.703 9.70714 164.542 9.70714C163.416 9.70714 162.491 10.0899 161.768 10.8555C161.061 11.6037 160.708 12.6476 160.708 13.9874V14.2222C160.708 15.562 161.061 16.6146 161.768 17.3802C162.491 18.1284 163.416 18.5025 164.542 18.5025Z" fill="black"></path>
                        </svg>